<svg xmlns="http://www.w3.org/2000/svg" viewBox="0 0 35 35"><defs><style>.cls-1{fill:#006682;}</style></defs><title>add</title><g id="Layer_2" data-name="Layer 2"><g id="Layer_1-2" data-name="Layer 1"><path class="cls-1" d="M29.5,35H5.5A5.5,5.5,0,0,1,0,29.5V5.5A5.5,5.5,0,0,1,5.5,0H29.5A5.5,5.5,0,0,1,35,5.5V29.5A5.5,5.5,0,0,1,29.5,35ZM5.5,2.6A2.9,2.9,0,0,0,2.6,5.5V29.5a2.9,2.9,0,0,0,2.9,2.9H29.5a2.9,2.9,0,0,0,2.9-2.9V5.5a2.9,2.9,0,0,0-2.9-2.9Z"/><polygon class="cls-1" points="27 16.2 18.8 16.2 18.8 8 16.2 8 16.2 16.2 8 16.2 8 18.8 16.2 18.8 16.2 27 18.8 27 18.8 18.8 27 18.8 27 16.2"/></g></g></svg>