<svg xmlns="http://www.w3.org/2000/svg" viewBox="0 0 30 26.7"><defs><style>.cls-1{fill:#006682;}</style></defs><title>Adjuntar</title><g id="Layer_2" data-name="Layer 2"><g id="Layer_1-2" data-name="Layer 1"><g id="kymEJe.tif"><path class="cls-1" d="M30,7.3a7.8,7.8,0,0,1-2.3,5.9L14.8,26.1c-.4.4-.8.5-1.2.2a.7.7,0,0,1-.2-1l.3-.4L26.5,12.3a6.3,6.3,0,0,0,2-3.9,5.9,5.9,0,0,0-1-4.1,6.1,6.1,0,0,0-9.5-.9L2.7,18.6A3.8,3.8,0,0,0,4.2,25,3.5,3.5,0,0,0,8,24.2L17.2,15l6.1-6.1A1.6,1.6,0,0,0,23.7,7a1.5,1.5,0,0,0-2.3-.5l-.4.4L8.3,19.5l-.6.4a.6.6,0,0,1-.7-.3.7.7,0,0,1,0-.8l.3-.3L20,5.7A3.2,3.2,0,0,1,24,5.2a3.1,3.1,0,0,1,.7,4.5l-.4.4-15,15a5.2,5.2,0,0,1-4.8,1.6A5.1,5.1,0,0,1,.2,22.8a5.1,5.1,0,0,1,1.4-5.3L16.8,2.4a7.5,7.5,0,0,1,7-2.2,7.5,7.5,0,0,1,5.4,4.1A6.9,6.9,0,0,1,30,7.3Z"/></g></g></g></svg>