<svg xmlns="http://www.w3.org/2000/svg" viewBox="0 0 30 30"><defs><style>.cls-1{fill:#a5d5e1;}</style></defs><title>calendar2</title><g id="Layer_2" data-name="Layer 2"><g id="Layer_1-2" data-name="Layer 1"><g id="K4whsP.tif"><path class="cls-1" d="M5,2.5C5,2,5,1.6,5,1.2A1.2,1.2,0,0,1,6.9.2a1.1,1.1,0,0,1,.6,1c0,.4,0,.9,0,1.3h15c0-.4,0-.8,0-1.1a1.3,1.3,0,0,1,.3-.9A1.2,1.2,0,0,1,24.1.1a1.2,1.2,0,0,1,.9,1c0,.4,0,.7,0,1.1s0,.2,0,.3h2.6A3.1,3.1,0,0,1,30,5.8c0,2.1,0,4.2,0,6.3q0,7.3,0,14.5a3.3,3.3,0,0,1-.6,2A3.2,3.2,0,0,1,26.7,30H3.4a3.3,3.3,0,0,1-2-.6A3.1,3.1,0,0,1,0,26.9c0-1.9,0-3.8,0-5.7Q0,13.4,0,5.7a3.1,3.1,0,0,1,2.1-3l1.2-.2ZM27.5,10H2.5v.3q0,8.2,0,16.4c0,.6.2.8.8.8H26.7c.6,0,.8-.2.8-.8q0-8.2,0-16.3ZM2.5,7.5h25c0-.6,0-1.3,0-1.9A.6.6,0,0,0,27,5H25c-.2.8-.6,1.2-1.2,1.2L23,6a1.2,1.2,0,0,1-.5-1H7.5c-.2.8-.6,1.2-1.2,1.2L5.5,6A1.2,1.2,0,0,1,5,5H3.1a.6.6,0,0,0-.6.6C2.5,6.2,2.5,6.8,2.5,7.5Z"/><path class="cls-1" d="M16.2,13.7A1.2,1.2,0,1,1,15,12.5,1.2,1.2,0,0,1,16.2,13.7Z"/><path class="cls-1" d="M18.8,25A1.2,1.2,0,1,1,20,23.7,1.3,1.3,0,0,1,18.8,25Z"/><path class="cls-1" d="M12.5,18.7a1.2,1.2,0,1,1-1.2-1.3A1.2,1.2,0,0,1,12.5,18.7Z"/><circle class="cls-1" cx="18.7" cy="13.7" r="1.3" transform="matrix(0.01, -1, 1, 0.01, 4.85, 32.38)"/><path class="cls-1" d="M12.5,13.8a1.2,1.2,0,1,1-1.2-1.3A1.3,1.3,0,0,1,12.5,13.8Z"/><path class="cls-1" d="M6.3,18.7A1.2,1.2,0,1,1,7.5,20,1.2,1.2,0,0,1,6.3,18.7Z"/><path class="cls-1" d="M16.2,18.8A1.2,1.2,0,1,1,15,17.5,1.2,1.2,0,0,1,16.2,18.8Z"/><path class="cls-1" d="M22.5,17.5a1.3,1.3,0,1,1-1.2,1.3A1.3,1.3,0,0,1,22.5,17.5Z"/><path class="cls-1" d="M23.7,13.7a1.3,1.3,0,1,1-1.3-1.3A1.3,1.3,0,0,1,23.7,13.7Z"/><circle class="cls-1" cx="18.7" cy="18.7" r="1.3"/><path class="cls-1" d="M6.3,23.7A1.2,1.2,0,1,1,7.5,25,1.2,1.2,0,0,1,6.3,23.7Z"/><path class="cls-1" d="M16.2,23.7A1.2,1.2,0,1,1,15,22.5,1.2,1.2,0,0,1,16.2,23.7Z"/><path class="cls-1" d="M12.5,23.7a1.2,1.2,0,1,1-1.2-1.3A1.2,1.2,0,0,1,12.5,23.7Z"/></g></g></g></svg>