<svg xmlns="http://www.w3.org/2000/svg" viewBox="0 0 30 30"><defs><style>.cls-1{fill:#006682;}</style></defs><title>Duplicar</title><g id="Layer_2" data-name="Layer 2"><g id="Layer_1-2" data-name="Layer 1"><g id="iBbAlT.tif"><path class="cls-1" d="M30,12.1q0,5.5,0,11c0,.8-.3,1.1-1.1,1.1H6.9c-.8,0-1.2-.3-1.2-1.1q0-11,0-21.9C5.8.3,6.1,0,6.9,0h22c.8,0,1.1.3,1.1,1.1Q30,6.6,30,12.1ZM28.2,1.8H7.5V22.5H28.2Z"/><path class="cls-1" d="M1.7,28.3H23.1c.6,0,.9.2,1,.6a.9.9,0,0,1-.7,1.1H1.2C.3,30,0,29.7,0,28.8Q0,17.9,0,6.9a1.6,1.6,0,0,1,.2-.8.7.7,0,0,1,.9-.2.9.9,0,0,1,.6.8c0,.1,0,.3,0,.4q0,10.4,0,20.8Z"/><path class="cls-1" d="M17,11.3c0-.8,0-1.6,0-2.3s0-1.1,0-1.7a.9.9,0,1,1,1.7,0c0,1.2,0,2.3,0,3.5v.4h4a.8.8,0,0,1,.8.6.8.8,0,0,1-.4,1H18.7v.4c0,1.1,0,2.3,0,3.4a.9.9,0,1,1-1.7,0c0-1.1,0-2.3,0-3.4V13H13.1a.9.9,0,0,1-1-.7.8.8,0,0,1,.9-1H17Z"/></g></g></g></svg>