<svg xmlns="http://www.w3.org/2000/svg" viewBox="0 0 273.6 273.6"><defs><style>.cls-1{fill:#fff;}.cls-2{fill:#006682;}.cls-3{fill:#e14708;}</style></defs><title>CT_iconWB</title><g id="Layer_2" data-name="Layer 2"><g id="Layer_1-2" data-name="Layer 1"><circle class="cls-1" cx="136.8" cy="136.8" r="136.8"/><path class="cls-2" d="M136.7,8.8A128,128,0,0,0,79.2,251.1a129,129,0,0,0,57.7,13.7A128,128,0,0,0,194.4,22.5,129,129,0,0,0,136.7,8.8Zm70,225.9A120.3,120.3,0,0,1,66.8,38.9C88,23.8,112.1,16.1,136.3,16.1a120.6,120.6,0,0,1,70.5,218.5Z"/><path class="cls-3" d="M182,156.1l1.6.3,25.4,8.9a4.8,4.8,0,0,1,3.2,4.7l-.7,29.8a4.8,4.8,0,0,1-2,3.8l-30,21.5a4.8,4.8,0,0,1-2.8.9l-1.4-.2-27.3-8.6a4.8,4.8,0,0,1-3.4-4.8l1.1-28.9a4.8,4.8,0,0,1,2-3.8L179.1,157a4.8,4.8,0,0,1,2.8-.9m0-4.5h0a9.2,9.2,0,0,0-5.4,1.7L144.9,176a9.3,9.3,0,0,0-3.9,7.2L140,212.2a9.3,9.3,0,0,0,6.5,9.2l27.3,8.6a9.3,9.3,0,0,0,8.2-1.3l30-21.5a9.3,9.3,0,0,0,3.9-7.3l.7-29.8a9.3,9.3,0,0,0-6.2-9L185,152.2a9.3,9.3,0,0,0-3.1-.5Z"/><path class="cls-3" d="M202,78.8a4.8,4.8,0,0,1,2.3.6l29.4,15.9a4.8,4.8,0,0,1,2.5,3.6l4.1,28.4a4.8,4.8,0,0,1-2.4,4.9l-26,16.8a4.8,4.8,0,0,1-2.3.6l-1.6-.3-21.7-7.5a4.8,4.8,0,0,1-3-3l-12.5-36.7a4.8,4.8,0,0,1,2-5.6l26.6-16.9a4.8,4.8,0,0,1,2.6-.8m0-4.5h0a9.3,9.3,0,0,0-5,1.5L170.4,92.8a9.3,9.3,0,0,0-3.8,10.8l12.5,36.7a9.2,9.2,0,0,0,5.8,5.8l21.7,7.5a9.3,9.3,0,0,0,7.5-.7h.3L240.2,136a9.3,9.3,0,0,0,4.5-9.3l-4.1-28.5a9.3,9.3,0,0,0-4.8-6.9L206.4,75.5a9.3,9.3,0,0,0-4.4-1.1Z"/><path class="cls-3" d="M105.6,84h1L149.9,93a4.8,4.8,0,0,1,3.6,3.1l13.7,39.4a4.8,4.8,0,0,1-1.8,5.5l-29.7,21.3a4.8,4.8,0,0,1-5.8-.1L97.1,136.4a4.8,4.8,0,0,1-1.8-4.4l5.6-43.8a4.8,4.8,0,0,1,4.8-4.2m0-4.5a9.3,9.3,0,0,0-9.2,8.1l-5.6,43.8a9.3,9.3,0,0,0,3.5,8.5l32.8,25.7a9.3,9.3,0,0,0,5.7,2,9.2,9.2,0,0,0,5.4-1.7L168,144.6a9.3,9.3,0,0,0,3.4-10.6L157.7,94.7a9.3,9.3,0,0,0-6.9-6l-43.2-8.9-1.9-.2Z"/><path class="cls-3" d="M89.5,151.7a4.8,4.8,0,0,1,2.9,1l30.7,23.7a4.8,4.8,0,0,1,1.9,3.8l-1.6,36.1c0,1.4-.4,3-1.6,3.6-5,2.7-22.1,5.4-22.1,5.4-1.6.2-3.1.4-4.5.4a6.2,6.2,0,0,1-2.5-.4L68.2,213.6a4.8,4.8,0,0,1-2.6-3.5l-5.5-33a4.8,4.8,0,0,1,1.7-4.6l24.6-19.7a4.8,4.8,0,0,1,3-1.1m0-4.5a9.3,9.3,0,0,0-5.8,2L59.1,169a9.3,9.3,0,0,0-3.4,8.8l5.5,33a9.3,9.3,0,0,0,5,6.7h.1l24.5,11.7H91a10.5,10.5,0,0,0,4.3.8l3.7-.3h1.5c3-.5,18.1-3,23.5-5.9,2.5-1.3,3.9-4,4-7.4l1.6-36h0a9.2,9.2,0,0,0-3.6-7.3L95.2,149.2a9.3,9.3,0,0,0-5.7-1.9Z"/></g></g></svg>