<svg xmlns="http://www.w3.org/2000/svg" viewBox="0 0 256 256"><defs><style>.cls-1{fill:#006682;}.cls-2{fill:#e14708;}</style></defs><title>CT_icon</title><g id="Layer_2" data-name="Layer 2"><g id="Layer_1-2" data-name="Layer 1"><path class="cls-1" d="M127.9,0A128,128,0,0,0,70.4,242.3,129,129,0,0,0,128.1,256,128,128,0,0,0,185.6,13.7,129,129,0,0,0,127.9,0Zm70,225.9A120.3,120.3,0,0,1,58,30.1C79.2,15,103.3,7.4,127.5,7.4A120.6,120.6,0,0,1,198,225.9Z"/><path class="cls-2" d="M173.2,147.3l1.6.3,25.4,8.9a4.8,4.8,0,0,1,3.2,4.7l-.7,29.8a4.8,4.8,0,0,1-2,3.8l-30,21.5a4.8,4.8,0,0,1-2.8.9l-1.4-.2L139,208.3a4.8,4.8,0,0,1-3.4-4.8l1.1-28.9a4.8,4.8,0,0,1,2-3.8l31.7-22.6a4.8,4.8,0,0,1,2.8-.9m0-4.5h0a9.2,9.2,0,0,0-5.4,1.7l-31.7,22.6a9.3,9.3,0,0,0-3.9,7.2l-1.1,28.9a9.3,9.3,0,0,0,6.5,9.2l27.3,8.6a9.3,9.3,0,0,0,8.2-1.3l30-21.5a9.3,9.3,0,0,0,3.9-7.3l.7-29.8a9.3,9.3,0,0,0-6.2-9l-25.4-8.9a9.3,9.3,0,0,0-3.1-.5Z"/><path class="cls-2" d="M193.2,70a4.8,4.8,0,0,1,2.3.6l29.4,15.9a4.8,4.8,0,0,1,2.5,3.6l4.1,28.4a4.8,4.8,0,0,1-2.4,4.9l-26,16.8a4.8,4.8,0,0,1-2.3.6l-1.6-.3-21.7-7.5a4.8,4.8,0,0,1-3-3L162,93.4a4.8,4.8,0,0,1,2-5.6l26.6-16.9a4.8,4.8,0,0,1,2.6-.8m0-4.5h0a9.3,9.3,0,0,0-5,1.5L161.6,84a9.3,9.3,0,0,0-3.8,10.8l12.5,36.7a9.2,9.2,0,0,0,5.8,5.8l21.7,7.5a9.3,9.3,0,0,0,7.5-.7h.3l25.9-16.8a9.3,9.3,0,0,0,4.5-9.3l-4.1-28.5a9.3,9.3,0,0,0-4.8-6.9L197.6,66.7a9.3,9.3,0,0,0-4.4-1.1Z"/><path class="cls-2" d="M96.9,75.2h1l43.2,8.9a4.8,4.8,0,0,1,3.6,3.1l13.7,39.4a4.8,4.8,0,0,1-1.8,5.5l-29.7,21.3a4.8,4.8,0,0,1-5.8-.1L88.3,127.7a4.8,4.8,0,0,1-1.8-4.4l5.6-43.8a4.8,4.8,0,0,1,4.8-4.2m0-4.5a9.3,9.3,0,0,0-9.2,8.1L82,122.7a9.3,9.3,0,0,0,3.5,8.5l32.8,25.7a9.3,9.3,0,0,0,5.7,2,9.2,9.2,0,0,0,5.4-1.7l29.7-21.3a9.3,9.3,0,0,0,3.4-10.6L148.9,85.9a9.3,9.3,0,0,0-6.9-6L98.7,71l-1.9-.2Z"/><path class="cls-2" d="M80.7,143a4.8,4.8,0,0,1,2.9,1l30.7,23.7a4.8,4.8,0,0,1,1.9,3.8l-1.6,36.1c0,1.4-.4,3-1.6,3.6-5,2.7-22.1,5.4-22.1,5.4-1.6.2-3.1.4-4.5.4a6.2,6.2,0,0,1-2.5-.4L59.4,204.8a4.8,4.8,0,0,1-2.6-3.5l-5.5-33a4.8,4.8,0,0,1,1.7-4.6L77.7,144a4.8,4.8,0,0,1,3-1.1m0-4.5a9.3,9.3,0,0,0-5.8,2L50.3,160.2a9.3,9.3,0,0,0-3.4,8.8l5.5,33a9.3,9.3,0,0,0,5,6.7h.1l24.5,11.7h.1a10.5,10.5,0,0,0,4.3.8l3.7-.3h1.5c3-.5,18.1-3,23.5-5.9,2.5-1.3,3.9-4,4-7.4l1.6-36h0a9.2,9.2,0,0,0-3.6-7.3L86.4,140.4a9.3,9.3,0,0,0-5.7-1.9Z"/></g></g></svg>