<svg xmlns="http://www.w3.org/2000/svg" viewBox="0 0 164 20"><defs><style>.cls-1{fill:#fff;}</style></defs><title>CT_lettersW</title><g id="Layer_2" data-name="Layer 2"><g id="Layer_1-2" data-name="Layer 1"><path class="cls-1" d="M5.7,2.3a8.5,8.5,0,0,1,4.1-1,8.6,8.6,0,0,1,4.5,1.1l1.5,1.1.6.6.5.6L17,5l.9-.8L17.7,4A9.4,9.4,0,0,0,9.8.1a9.8,9.8,0,0,0,0,19.5,10.1,10.1,0,0,0,3.8-.7l1.5-.8.6-.4.6-.5.4-.3.9-1,.2-.3-.8-.8h0v.2h-.1l-.5.6a8.8,8.8,0,0,1-6.4,2.7,8.5,8.5,0,0,1-4.1-1,8.6,8.6,0,0,1,0-15.2Z"/><polygon class="cls-1" points="35.5 0 28.8 11.4 22 0 20.6 0 28.2 12.6 28.2 19.4 28.2 19.4 29.3 19.4 29.3 19.4 29.3 12.7 36.9 0 35.5 0"/><path class="cls-1" d="M44.6,0h-.9L35.9,19.4h1.3l2.7-6.5h8.7l2.7,6.5h1.3ZM40.4,11.7l3.8-9.5,3.9,9.5Z"/><polygon class="cls-1" points="68 0 68 17.4 56.4 0 55.2 0 55.2 19.4 55.2 19.4 56.4 19.4 56.4 19.4 56.4 2.5 68 19.4 69.2 19.4 69.2 19.4 69.2 0 68 0"/><polygon class="cls-1" points="88.5 0 75.5 0 74.8 0 74.8 0.8 74.8 1.3 74.8 2 75.5 2 81.1 2 81.1 19.1 81.1 19.8 81.8 19.8 82.3 19.8 83 19.8 83 19.1 83 2 88.5 2 89.2 2 89.2 1.3 89.2 0.8 89.2 0 88.5 0"/><path class="cls-1" d="M106.6,0h-1.2V11.7c0,4.1-2.2,6.5-6.2,6.5s-6.2-2.3-6.2-6.5V0H91.3V11.7c0,5.2,3,8.3,8,8.3s8-3.1,8-8.3V0Z"/><path class="cls-1" d="M123.1,18.6l-4.6-5.5A6.6,6.6,0,0,0,117.2,0H111V19.8h1.9V1.8h4.4a4.6,4.6,0,0,1,4.7,4.8,4.7,4.7,0,0,1-4.7,4.8h-2.5l.9,1.1,5.7,7,.2.3h2.5Z"/><polygon class="cls-1" points="138.4 0 125.4 0 124.7 0 124.7 0.8 124.7 1.3 124.7 2 125.4 2 131 2 131 19.1 131 19.8 131.7 19.8 132.2 19.8 132.9 19.8 132.9 19.1 132.9 2 138.4 2 139.1 2 139.1 1.3 139.1 0.8 139.1 0 138.4 0"/><polygon class="cls-1" points="150.8 17.9 143.4 17.9 143.4 0.7 143.4 0 142.7 0 142.3 0 141.6 0 141.6 0.7 141.6 19.1 141.6 19.8 142.3 19.8 150.8 19.8 151.5 19.8 151.5 19.1 151.5 18.6 151.5 17.9 150.8 17.9"/><path class="cls-1" d="M163.3,17.9h-7.4V13.2h6.9V11.4h-6.9V2h7.8V0h-9.6V19.8H164V17.9Z"/></g></g></svg>