<svg xmlns="http://www.w3.org/2000/svg" viewBox="0 0 231.5 30"><defs><style>.cls-1{fill:#fff;}.cls-2{fill:#006682;}.cls-3{fill:#e14708;}</style></defs><title>CT_lettersColors</title><g id="Layer_2" data-name="Layer 2"><g id="Layer_1-2" data-name="Layer 1"><path class="cls-1" d="M14.7,29.5A14.7,14.7,0,0,1,14.7.2,14.1,14.1,0,0,1,26.5,6L27.3,7,24.6,9.6l-1-1.4a10.5,10.5,0,0,0-8.9-4.4,11.1,11.1,0,1,0,8.8,17.9l1-1.3,2.7,2.4-.8,1.1A14.5,14.5,0,0,1,14.7,29.5Z"/><path class="cls-2" d="M24.3,22.3A12.1,12.1,0,1,1,14.7,2.8a11.4,11.4,0,0,1,9.7,4.8l.3.5L26,6.9l-.3-.4a13.1,13.1,0,0,0-11-5.4,13.7,13.7,0,0,0,0,27.4,13.5,13.5,0,0,0,10.9-5.3l.3-.4-1.2-1.1Z"/><polygon class="cls-1" points="39.4 29.2 39.4 19 28.1 0 32.4 0 41.3 15 50.1 0 54.3 0 43.1 19 43.1 29.2 39.4 29.2"/><polygon class="cls-2" points="50.6 1 41.3 16.9 31.8 1 29.8 1 40.4 18.7 40.4 28.2 42.1 28.2 42.1 18.7 52.6 1 50.6 1"/><path class="cls-1" d="M72,29.2,68.2,20H57.5l-3.7,9.1h-4L61.6,0h2.6L76,29.2ZM66.8,16.4,62.9,6.8,59,16.4Z"/><path class="cls-2" d="M63.5,1H62.2l-11,27.2h1.8L56.8,19H68.9l3.7,9.1h1.9Zm-6,16.4L62.9,4.1l5.4,13.3Z"/><polygon class="cls-1" points="96.5 29.2 95.7 29.2 80.9 7.7 80.9 29.2 77.3 29.2 77.3 0 80.5 0 95.2 22 95.2 0 98.8 0 98.8 29.2 98.2 29.2 96.5 29.2"/><polygon class="cls-2" points="96.2 1 96.2 25.3 79.9 1 78.3 1 78.3 28.2 79.9 28.2 79.9 4.5 96.2 28.2 97.8 28.2 97.8 1 96.2 1"/><polygon class="cls-1" points="113.5 29.7 113.5 4.7 104.7 4.7 104.7 0 126.9 0 126.9 4.7 118.1 4.7 118.1 29.7 113.5 29.7"/><polygon class="cls-3" points="124.9 1 106.7 1 105.7 1 105.7 2.1 105.7 2.8 105.7 3.7 106.7 3.7 114.5 3.7 114.5 27.7 114.5 28.7 115.4 28.7 116.1 28.7 117.1 28.7 117.1 27.7 117.1 3.7 124.9 3.7 125.9 3.7 125.9 2.8 125.9 2.1 125.9 1 124.9 1"/><path class="cls-1" d="M140,30c-7.6,0-12.2-4.9-12.2-12.7V0h4.6V17.3c0,5.3,2.6,8.1,7.6,8.1s7.6-2.9,7.6-8.1V0h4.6V17.3C152.2,25.1,147.5,30,140,30Z"/><path class="cls-3" d="M150.2,1h-1.6V17.3c0,5.8-3.1,9.1-8.6,9.1s-8.6-3.2-8.6-9.1V1h-2.6V17.3c0,7.3,4.2,11.7,11.2,11.7s11.2-4.4,11.2-11.7V1Z"/><path class="cls-1" d="M170.7,29.7,159.9,16.5V29.7h-4.6V0H165a10.3,10.3,0,0,1,3.6,19.9l8.1,9.8ZM165,15.9a5.6,5.6,0,0,0,5.6-5.7A5.5,5.5,0,0,0,165,4.6h-5.1V15.9Z"/><path class="cls-3" d="M173.3,27.1l-6.4-7.7A9.3,9.3,0,0,0,165,1h-8.7V28.7h2.6V3.6H165a6.5,6.5,0,0,1,6.6,6.7,6.5,6.5,0,0,1-6.6,6.7h-3.4l1.3,1.6,8,9.8.3.4h3.5Z"/><polygon class="cls-1" points="183.3 29.7 183.3 4.7 174.6 4.7 174.6 0 196.7 0 196.7 4.7 188 4.7 188 29.7 183.3 29.7"/><polygon class="cls-3" points="194.7 1 176.5 1 175.6 1 175.6 2.1 175.6 2.8 175.6 3.7 176.5 3.7 184.3 3.7 184.3 27.7 184.3 28.7 185.3 28.7 186 28.7 187 28.7 187 27.7 187 3.7 194.7 3.7 195.7 3.7 195.7 2.8 195.7 2.1 195.7 1 194.7 1"/><polygon class="cls-1" points="198.1 29.7 198.1 0 202.7 0 202.7 25.1 214 25.1 214 29.7 198.1 29.7"/><polygon class="cls-3" points="212 26.1 201.7 26.1 201.7 2 201.7 1 200.8 1 200.1 1 199.1 1 199.1 2 199.1 27.7 199.1 28.7 200.1 28.7 212 28.7 213 28.7 213 27.7 213 27.1 213 26.1 212 26.1"/><polygon class="cls-1" points="215.6 29.7 215.6 0 231.1 0 231.1 4.7 220.2 4.7 220.2 15.9 229.8 15.9 229.8 20.5 220.2 20.5 220.2 25.1 231.5 25.1 231.5 29.7 215.6 29.7"/><path class="cls-3" d="M229.5,26.1H219.2V19.5h9.6V16.9h-9.6V3.7h10.9V1H216.6V28.7h13.9V26.1Z"/></g></g></svg>