<svg xmlns="http://www.w3.org/2000/svg" viewBox="0 0 164.8 200.3"><defs><style>.cls-1{fill:#006682;}.cls-2{fill:#e14708;}</style></defs><title>CT_Logo</title><g id="Layer_2" data-name="Layer 2"><g id="Layer_1-2" data-name="Layer 1"><path class="cls-1" d="M81.9,0A82,82,0,0,0,45.1,155.2a82.7,82.7,0,0,0,37,8.8A82,82,0,0,0,118.9,8.8,82.6,82.6,0,0,0,81.9,0Zm44.9,144.7A77.1,77.1,0,0,1,37.2,19.3,76.2,76.2,0,0,1,81.7,4.7a77.2,77.2,0,0,1,45.1,140Z"/><path class="cls-2" d="M110.9,94.4l1,.2,16.2,5.7a3.1,3.1,0,0,1,2.1,3l-.5,19.1a3.1,3.1,0,0,1-1.3,2.4l-19.2,13.8a3.1,3.1,0,0,1-1.8.6h-.9l-17.5-5.5a3.1,3.1,0,0,1-2.2-3.1l.7-18.5a3.1,3.1,0,0,1,1.3-2.4L109.1,95a3.1,3.1,0,0,1,1.8-.6m0-2.9h0a5.9,5.9,0,0,0-3.5,1.1L87.2,107.1a6,6,0,0,0-2.5,4.6L84,130.3a6,6,0,0,0,4.2,5.9l17.5,5.5,1.8.3a5.9,5.9,0,0,0,3.5-1.1l19.2-13.8a6,6,0,0,0,2.5-4.7l.5-19.1a5.9,5.9,0,0,0-4-5.8l-16.2-5.7a5.9,5.9,0,0,0-2-.3Z"/><path class="cls-2" d="M123.8,44.9a3.1,3.1,0,0,1,1.5.4l18.9,10.2a3.1,3.1,0,0,1,1.6,2.3l2.7,18.2a3.1,3.1,0,0,1-1.6,3.1L130.1,89.9a3.1,3.1,0,0,1-1.5.4l-1-.2-13.9-4.8a3.1,3.1,0,0,1-1.9-1.9l-8-23.5a3.1,3.1,0,0,1,1.3-3.6l17-10.9a3.1,3.1,0,0,1,1.7-.5m0-2.9h0a5.9,5.9,0,0,0-3.2.9l-17,10.9a5.9,5.9,0,0,0-2.4,6.9l8,23.5a5.9,5.9,0,0,0,3.7,3.7l13.9,4.8a5.9,5.9,0,0,0,4.8-.4h.2l16.6-10.7a6,6,0,0,0,2.9-6l-2.7-18.2a6,6,0,0,0-3.1-4.4L126.6,42.7a6,6,0,0,0-2.8-.7Z"/><path class="cls-2" d="M62,48.2h.6l27.7,5.7a3.1,3.1,0,0,1,2.3,2l8.8,25.2a3.1,3.1,0,0,1-1.1,3.5L81.3,98.3a3.1,3.1,0,0,1-3.7-.1l-21-16.5A3.1,3.1,0,0,1,55.4,79l3.6-28A3.1,3.1,0,0,1,62,48.2m0-2.9a6,6,0,0,0-5.9,5.2l-3.6,28A6,6,0,0,0,54.8,84l21,16.5a6,6,0,0,0,3.7,1.3,5.9,5.9,0,0,0,3.5-1.1L102,87a6,6,0,0,0,2.2-6.8L95.4,55a6,6,0,0,0-4.4-3.9L63.2,45.5Z"/><path class="cls-2" d="M51.7,91.6a3.1,3.1,0,0,1,1.9.6l19.7,15.2a3.1,3.1,0,0,1,1.2,2.4l-1,23.1a2.5,2.5,0,0,1-1,2.3c-3.2,1.7-14.2,3.5-14.2,3.5l-2.9.3a4,4,0,0,1-1.6-.3l-15.7-7.5a3.1,3.1,0,0,1-1.7-2.2l-3.5-21.1a3.1,3.1,0,0,1,1.1-2.9L49.8,92.3a3.1,3.1,0,0,1,1.9-.7m0-2.9A6,6,0,0,0,48,90L32.2,102.6a6,6,0,0,0-2.2,5.6l3.5,21.1a6,6,0,0,0,3.2,4.3h.1l15.7,7.5h.1a6.7,6.7,0,0,0,2.8.5l2.4-.2h.9c1.9-.3,11.6-1.9,15.1-3.8a5.2,5.2,0,0,0,2.5-4.8l1-23.1h0a5.9,5.9,0,0,0-2.3-4.7L55.4,90a6,6,0,0,0-3.6-1.2Z"/><path class="cls-1" d="M6.3,182.5a8.5,8.5,0,0,1,4.1-1,8.6,8.6,0,0,1,4.5,1.1l1.5,1.1.6.6.5.6.2.3.9-.8-.2-.3a9.4,9.4,0,0,0-7.9-3.9,9.8,9.8,0,0,0,0,19.6,10.1,10.1,0,0,0,3.8-.7l1.5-.8.6-.4.6-.5.4-.3.9-1,.2-.3-.8-.8h0v.2h-.1l-.5.6a8.8,8.8,0,0,1-6.4,2.7,8.5,8.5,0,0,1-4.1-1,8.7,8.7,0,0,1,0-15.2Z"/><polygon class="cls-1" points="36.1 180.2 29.4 191.6 22.6 180.2 21.2 180.2 28.8 192.9 28.8 199.7 28.8 199.7 29.9 199.7 29.9 199.7 29.9 192.9 37.5 180.2 36.1 180.2"/><path class="cls-1" d="M45.3,180.2h-.9l-7.8,19.5h1.3l2.7-6.5h8.7l2.7,6.5h1.3ZM41,192l3.8-9.5,3.9,9.5Z"/><polygon class="cls-1" points="68.7 180.2 68.7 197.6 57 180.2 55.8 180.2 55.8 199.7 55.8 199.7 57 199.7 57 199.7 57 182.7 68.7 199.7 69.9 199.7 69.9 199.7 69.9 180.2 68.7 180.2"/><polygon class="cls-2" points="89.2 180.2 76.2 180.2 75.5 180.2 75.5 181.1 75.5 181.5 75.5 182.2 76.2 182.2 81.7 182.2 81.7 199.3 81.7 200 82.5 200 82.9 200 83.6 200 83.6 199.3 83.6 182.2 89.2 182.2 89.9 182.2 89.9 181.5 89.9 181.1 89.9 180.2 89.2 180.2"/><path class="cls-2" d="M107.3,180.2h-1.2v11.7c0,4.1-2.2,6.5-6.2,6.5s-6.2-2.3-6.2-6.5V180.2H91.9v11.7c0,5.2,3,8.3,8,8.3s8-3.1,8-8.3V180.2Z"/><path class="cls-2" d="M123.9,198.9l-4.6-5.5a6.6,6.6,0,0,0-1.4-13.1h-6.3V200h1.9v-18h4.4a4.8,4.8,0,0,1,0,9.6h-2.5l.9,1.1,5.7,7,.2.3h2.5Z"/><polygon class="cls-2" points="139.2 180.2 126.2 180.2 125.5 180.2 125.5 181.1 125.5 181.5 125.5 182.2 126.2 182.2 131.7 182.2 131.7 199.3 131.7 200 132.4 200 132.9 200 133.6 200 133.6 199.3 133.6 182.2 139.2 182.2 139.9 182.2 139.9 181.5 139.9 181.1 139.9 180.2 139.2 180.2"/><polygon class="cls-2" points="151.6 198.2 144.2 198.2 144.2 180.9 144.2 180.2 143.5 180.2 143 180.2 142.3 180.2 142.3 180.9 142.3 199.3 142.3 200 143 200 151.6 200 152.3 200 152.3 199.3 152.3 198.9 152.3 198.2 151.6 198.2"/><path class="cls-2" d="M164.1,198.2h-7.4v-4.7h6.9v-1.8h-6.9v-9.4h7.8v-2h-9.6V200h9.9v-1.8Z"/></g></g></svg>