<svg xmlns="http://www.w3.org/2000/svg" viewBox="0 0 35 35"><defs><style>.cls-1{fill:#a5d5e1;}</style></defs><title>delete</title><g id="Layer_2" data-name="Layer 2"><g id="Layer_1-2" data-name="Layer 1"><path class="cls-1" d="M29.5,35H5.5A5.5,5.5,0,0,1,0,29.5V5.5A5.5,5.5,0,0,1,5.5,0H29.5A5.5,5.5,0,0,1,35,5.5V29.5A5.5,5.5,0,0,1,29.5,35ZM5.5,2.6A2.9,2.9,0,0,0,2.6,5.5V29.5a2.9,2.9,0,0,0,2.9,2.9H29.5a2.9,2.9,0,0,0,2.9-2.9V5.5a2.9,2.9,0,0,0-2.9-2.9Z"/><path class="cls-1" d="M27.2,10.9H22.3a4.5,4.5,0,0,0-8.9,0H7.8a.9.9,0,0,0,0,1.7h2.2V24.5a4,4,0,0,0,3.8,4.1h7.7a4,4,0,0,0,3.8-4.1V12.6h1.8a.9.9,0,1,0,0-1.7ZM17.9,8a2.8,2.8,0,0,1,2.8,2.8H15.1A2.8,2.8,0,0,1,17.9,8Zm5,16.5a1.4,1.4,0,0,1-1.3,1.4H13.9a1.4,1.4,0,0,1-1.3-1.4V13.6h2.2v9.6h1.9V13.6h1.9v9.6h1.9V13.6h2.2Z"/></g></g></svg>