<svg xmlns="http://www.w3.org/2000/svg" viewBox="0 0 30 30"><defs><style>.cls-1{fill:#a5d5e1;}</style></defs><title>add2_1</title><g id="Layer_2" data-name="Layer 2"><g id="Layer_1-2" data-name="Layer 1"><path class="cls-1" d="M23.7,9.5a3.5,3.5,0,0,1-1,2.6l-9.8,9.8-.7.4L7.7,23.6a1,1,0,0,1-1.4-.8,1.2,1.2,0,0,1,.1-.5l1.3-4.6a1.6,1.6,0,0,1,.4-.7l9.8-9.7a3.4,3.4,0,0,1,3.8-.7A3.3,3.3,0,0,1,23.7,9.5ZM8.6,21.4l2.8-.8.5-.3,6.9-6.9.5-.4L17,10.8l-.2.2-6.5,6.5a3.8,3.8,0,0,0-1.2,2.1C9,20.1,8.8,20.7,8.6,21.4ZM18.5,9.4l2.1,2.1,1-1a1.6,1.6,0,0,0-.1-2.1,1.5,1.5,0,0,0-2-.1Z"/><path class="cls-1" d="M25.3,30H4.7A4.7,4.7,0,0,1,0,25.3V4.7A4.7,4.7,0,0,1,4.7,0H25.3A4.7,4.7,0,0,1,30,4.7V25.3A4.7,4.7,0,0,1,25.3,30ZM4.7,2.2A2.5,2.5,0,0,0,2.2,4.7V25.3a2.5,2.5,0,0,0,2.5,2.5H25.3a2.5,2.5,0,0,0,2.5-2.5V4.7a2.5,2.5,0,0,0-2.5-2.5Z"/></g></g></svg>