<svg xmlns="http://www.w3.org/2000/svg" viewBox="0 0 35 35"><defs><style>.cls-1{fill:#1e96b4;}</style></defs><title>edit</title><g id="Layer_2" data-name="Layer 2"><g id="Layer_1-2" data-name="Layer 1"><path class="cls-1" d="M27.6,11.1a4.1,4.1,0,0,1-1.2,3.1L15.1,25.6l-.8.4L9,27.6a1.2,1.2,0,0,1-1.6-.9,1.4,1.4,0,0,1,.1-.6L9,20.7a1.9,1.9,0,0,1,.4-.8L20.8,8.5a3.9,3.9,0,0,1,4.4-.8A3.9,3.9,0,0,1,27.6,11.1ZM10,25l3.3-.9.5-.3,8.1-8.1.5-.5-2.6-2.6-.2.3L12,20.4a4.5,4.5,0,0,0-1.4,2.4C10.5,23.5,10.3,24.2,10,25ZM21.5,11,24,13.5l1.2-1.1A1.8,1.8,0,0,0,25,10a1.8,1.8,0,0,0-2.4-.2Z"/><path class="cls-1" d="M29.5,35H5.5A5.5,5.5,0,0,1,0,29.5V5.5A5.5,5.5,0,0,1,5.5,0H29.5A5.5,5.5,0,0,1,35,5.5V29.5A5.5,5.5,0,0,1,29.5,35ZM5.5,2.6A2.9,2.9,0,0,0,2.6,5.5V29.5a2.9,2.9,0,0,0,2.9,2.9H29.5a2.9,2.9,0,0,0,2.9-2.9V5.5a2.9,2.9,0,0,0-2.9-2.9Z"/></g></g></svg>