<svg xmlns="http://www.w3.org/2000/svg" viewBox="0 0 16 16"><defs><style>.cls-1{fill:#006682;}.cls-2{fill:#e14708;}</style></defs><title>Favicon</title><g id="Layer_2" data-name="Layer 2"><g id="Layer_1-2" data-name="Layer 1"><path class="cls-1" d="M8,0A8,8,0,0,0,4.4,15.1,8.1,8.1,0,0,0,8,16,8,8,0,0,0,11.6.9,8.1,8.1,0,0,0,8,0Zm4.4,14.1A7.5,7.5,0,0,1,3.6,1.9,7.4,7.4,0,0,1,8,.5a7.5,7.5,0,0,1,4.4,13.7Z"/><path class="cls-2" d="M10.8,9.2h.1l1.6.6a.3.3,0,0,1,.2.3v2.1l-1.9,1.3h-.3L8.7,13a.3.3,0,0,1-.2-.3v-2l2-1.4h.2m0-.3h-.3l-2,1.4a.6.6,0,0,0-.2.5v1.8a.6.6,0,0,0,.4.6l1.7.5h.5l1.9-1.3a.6.6,0,0,0,.2-.5V10.1a.6.6,0,0,0-.4-.6L11,9Z"/><path class="cls-2" d="M12.1,4.4h.1l1.8,1,.2.2.3,1.8a.3.3,0,0,1-.2.3L12.7,8.8h-.2l-1.4-.5-.2-.2-.8-2.3a.3.3,0,0,1,.1-.4l1.7-1.1h.2m0-.3h-.3L10.1,5.2a.6.6,0,0,0-.2.7l.8,2.3a.6.6,0,0,0,.4.4l1.4.5h.5l1.6-1a.6.6,0,0,0,.3-.6l-.3-1.8a.6.6,0,0,0-.3-.4l-1.8-1Z"/><path class="cls-2" d="M6.1,4.7h.1l2.7.6.2.2.9,2.5a.3.3,0,0,1-.1.3L7.9,9.6H7.6L5.5,8a.3.3,0,0,1-.1-.3L5.8,5a.3.3,0,0,1,.3-.3m0-.3a.6.6,0,0,0-.6.5L5.1,7.7a.6.6,0,0,0,.2.5L7.4,9.8h.7L10,8.5a.6.6,0,0,0,.2-.7L9.3,5.4A.6.6,0,0,0,8.9,5L6.2,4.4Z"/><path class="cls-2" d="M5,8.9h.2l1.9,1.5V13a.2.2,0,0,1-.1.2l-1.4.3H5.2l-1.5-.7-.2-.2-.3-2.1a.3.3,0,0,1,.1-.3L4.9,9H5m0-.3H4.7L3.1,10a.6.6,0,0,0-.2.5l.3,2.1a.6.6,0,0,0,.3.4h0l1.5.7h.6l1.5-.4a.5.5,0,0,0,.2-.5V10.7h0a.6.6,0,0,0-.2-.5L5.4,8.8Z"/></g></g></svg>