<svg xmlns="http://www.w3.org/2000/svg" viewBox="0 0 65 65"><defs><style>.cls-1{fill:#a5d5e1;}.cls-2{fill:#006682;}</style></defs><title>Mentores</title><g id="Layer_2" data-name="Layer 2"><g id="Layer_1-2" data-name="Layer 1"><circle class="cls-1" cx="32.5" cy="32.5" r="32.5"/><g id="ud2C9G.tif"><path class="cls-2" d="M32,48.3c-4.4,0-8.7-.1-13.1,0-2,.1-2.4-.7-2.4-2.5s.9-4.9,3.4-6.2a25.4,25.4,0,0,1,25,0A6.1,6.1,0,0,1,48,43.1c1.3,3.8.3,5.2-3.7,5.2Z"/><path class="cls-2" d="M32.5,32.4a8.2,8.2,0,0,1-8-7.7,8.1,8.1,0,0,1,7.6-8.1,8.1,8.1,0,0,1,8.2,7.9A8.1,8.1,0,0,1,32.5,32.4Z"/></g></g></g></svg>