<svg xmlns="http://www.w3.org/2000/svg" viewBox="0 0 30 33.3"><defs><style>.cls-1{fill:#a5d5e1;}</style></defs><title>Proyecto</title><g id="Layer_2" data-name="Layer 2"><g id="Layer_1-2" data-name="Layer 1"><path class="cls-1" d="M29.5,10.7H23.4c-.9,0-1.3-.4-1.3-1.5q0-3.9,0-7.7V0H8.3c-.8,0-1,.2-1,1.2q0,15.5,0,31c0,.9.2,1.2,1,1.2H29c.8,0,1-.3,1-1.1q0-10.5,0-20.9v-.5Z"/><path class="cls-1" d="M0,11.5q0,8.2,0,16.4a1.1,1.1,0,0,0,.1.5l1.2,2.2a.8.8,0,0,0,.8.5.9.9,0,0,0,.8-.5L4,28.5a1.7,1.7,0,0,0,.2-.7q0-8,0-16.1v-.5H0Z"/><path class="cls-1" d="M24.4,2.2V8.3h5.1Z"/><path class="cls-1" d="M4.2,8.8c0-.6,0-1.3,0-1.9a.6.6,0,0,0-.6-.7H.6a.6.6,0,0,0-.6.6c0,.7,0,1.3,0,2Z"/></g></g></svg>