<svg xmlns="http://www.w3.org/2000/svg" viewBox="0 0 100 100"><defs><style>.cls-1{fill:#f8ffff;}.cls-2{fill:#1f95b5;fill-rule:evenodd;}</style></defs><title>Skill2</title><g id="Layer_2" data-name="Layer 2"><g id="Layer_1-2" data-name="Layer 1"><circle class="cls-1" cx="50" cy="50" r="50"/><path class="cls-2" d="M50,70c-8.7-6.2-27-15.8-27-26.4,0-16.1,23.2-18.8,27-3.3,3.8-15.5,27-12.8,27,3.3C77,54.2,58.7,63.8,50,70ZM33,49.6a13.7,13.7,0,0,1-2.1-3,7.2,7.2,0,0,1-.8-2.8,8,8,0,0,1,1-4.7,7.2,7.2,0,0,1,3.3-2.7,1.9,1.9,0,0,0-1.6-3.4,10.9,10.9,0,0,0-4.9,4.2A11.7,11.7,0,0,0,26.4,44a10.9,10.9,0,0,0,1.2,4.3,17.7,17.7,0,0,0,2.7,3.8A1.9,1.9,0,0,0,33,49.6Zm22.9-6.7a9.5,9.5,0,0,1,2.7-4.7,9.2,9.2,0,0,1,4.8-2.3,1.9,1.9,0,0,0-.6-3.7A12.9,12.9,0,0,0,56,35.4a13.2,13.2,0,0,0-3.7,6.6,1.9,1.9,0,0,0,3.7.9Z"/></g></g></svg>