<svg xmlns="http://www.w3.org/2000/svg" viewBox="0 0 100 100"><defs><style>.cls-1{fill:#f8ffff;}.cls-2{fill:#1f95b5;fill-rule:evenodd;}</style></defs><title>Skill1</title><g id="Layer_2" data-name="Layer 2"><g id="Layer_1-2" data-name="Layer 1"><circle class="cls-1" cx="50" cy="50" r="50"/><path class="cls-2" d="M69.3,39l1.5-2.3.2-.2,6.6-3a.4.4,0,0,1,.6.7L76,37.4l4.1.7a.4.4,0,0,1,.1.8L73.4,42h-.3l-3-.5-9.5,4.3.8,1.7a.4.4,0,0,1,0,.3l-.3.2L51.1,49.2a.4.4,0,0,1-.4-.8l7.4-6.8h.4l.3.2.7,1.6L69.3,39ZM50.5,40.2a8.4,8.4,0,1,0,8.2,10.1l-4.5.5a4.3,4.3,0,1,1-2.1-6.2l3.2-2.9a8.4,8.4,0,0,0-4.8-1.5Zm7.9,25.5a26.9,26.9,0,0,0,3.3,3.4c2.6,2.6,6.6-1.4,4-4l-2.6-2.6a18.8,18.8,0,0,0,5.6-18.2l-4.1,1.9a14.5,14.5,0,0,1,.2,2.5A14.3,14.3,0,1,1,62,40.2L66,38.3a18.7,18.7,0,0,0-12.3-8L50.5,30A18.7,18.7,0,0,0,37.9,62.6l-2.5,2.5c-2.6,2.6,1.3,6.6,4,4a27.6,27.6,0,0,0,3.2-3.4,18.8,18.8,0,0,0,15.8,0Z"/></g></g></svg>