<svg xmlns="http://www.w3.org/2000/svg" viewBox="0 0 100 100"><defs><style>.cls-1{fill:#f8ffff;}.cls-2{fill:#1f95b5;fill-rule:evenodd;}</style></defs><title>Skill3</title><g id="Layer_2" data-name="Layer 2"><g id="Layer_1-2" data-name="Layer 1"><circle class="cls-1" cx="50" cy="50" r="50"/><path class="cls-2" d="M35.4,30.9q4-.6,8-.8a2.5,2.5,0,0,1,2.2,3.9,5.1,5.1,0,1,0,8.6.6,6.4,6.4,0,0,1-.5-1.4,2.5,2.5,0,0,1,2.5-3c2.9.2,5.9.5,8.8.9s3.1,1.3,2.8,2.8c-.5,3.1-.9,6.2-1.1,9.4a2.4,2.4,0,0,0,3.8,2.2,5.1,5.1,0,1,1,.5,8.7,4.7,4.7,0,0,0-1.9-.5,2.4,2.4,0,0,0-1.9.7,2.4,2.4,0,0,0-.7,1.9,83.7,83.7,0,0,0,1.3,10.2c.3,1.5-1.3,2.5-2.8,2.8s-4.9.7-7.3.9a2.5,2.5,0,0,1-2.4-3.6,5.1,5.1,0,0,0,.5-2.3,5.1,5.1,0,1,0-9.5,2.3v.2A2.4,2.4,0,0,1,43.9,70q-4.2-.3-8.5-1c-1.5-.2-3-1.3-2.8-2.8q.6-4.7.8-9.5a2.5,2.5,0,0,0-3.8-2.1,5.1,5.1,0,1,1-.6-8.7,4.7,4.7,0,0,0,1.7.5,2.5,2.5,0,0,0,2.7-2.6q-.2-5.1-.8-10.2C32.4,32.1,33.9,31.1,35.4,30.9Z"/></g></g></svg>