<svg xmlns="http://www.w3.org/2000/svg" viewBox="0 0 68 68"><defs><style>.cls-1{fill:#ebffff;stroke:#1f95b5;stroke-miterlimit:10;stroke-width:3px;}.cls-2{fill:#1f95b5;}</style></defs><title>Alumnos</title><g id="Layer_2" data-name="Layer 2"><g id="Layer_1-2" data-name="Layer 1"><circle class="cls-1" cx="34" cy="34" r="32.5"/><g id="ud2C9G.tif"><path class="cls-2" d="M33.5,48.8c-4.1,0-8.2-.1-12.2,0-1.8.1-2.3-.6-2.3-2.4s.9-4.6,3.2-5.8a23.8,23.8,0,0,1,23.4,0,5.8,5.8,0,0,1,2.9,3.2c1.2,3.6.3,4.9-3.4,4.9Z"/><path class="cls-2" d="M34,33.9a7.7,7.7,0,0,1-7.5-7.2,7.6,7.6,0,0,1,7.1-7.6,7.6,7.6,0,0,1,7.7,7.4A7.6,7.6,0,0,1,34,33.9Z"/></g></g></g></svg>