<svg xmlns="http://www.w3.org/2000/svg" viewBox="0 0 40 40"><defs><style>.cls-1{fill:#fff;fill-rule:evenodd;}</style></defs><title>W_Ajustes</title><g id="Layer_2" data-name="Layer 2"><g id="Layer_1-2" data-name="Layer 1"><path class="cls-1" d="M24.8,4.8l2.6,1.1,4.5-2.3,4.6,4.6-2.3,4.5,1.1,2.6L40,16.8v6.5l-4.8,1.5-1.1,2.6,2.3,4.5-4.6,4.6-4.5-2.3-2.6,1.1L23.3,40H16.8l-1.5-4.8-2.6-1.1L8.2,36.4,3.6,31.8l2.3-4.5L4.8,24.8,0,23.2V16.8l4.8-1.5,1.1-2.6L3.6,8.2,8.2,3.6l4.5,2.3,2.6-1.1L16.8,0h6.5l1.5,4.8ZM20,28.7A8.7,8.7,0,1,0,11.3,20,8.7,8.7,0,0,0,20,28.7Zm0-12.8A4.1,4.1,0,1,0,24.1,20,4.1,4.1,0,0,0,20,15.9Zm0-7.4A11.5,11.5,0,1,0,31.5,20,11.5,11.5,0,0,0,20,8.5Z"/></g></g></svg>