<svg xmlns="http://www.w3.org/2000/svg" viewBox="0 0 40 40"><defs><style>.cls-1{fill:#fff;}</style></defs><title>W_Ciclos</title><g id="Layer_2" data-name="Layer 2"><g id="Layer_1-2" data-name="Layer 1"><g id="K4whsP.tif"><path class="cls-1" d="M6.7,3.3c0-.6,0-1.2,0-1.7A1.6,1.6,0,0,1,9.2.2,1.5,1.5,0,0,1,10,1.5c0,.6,0,1.2,0,1.8H30c0-.5,0-1,0-1.5A1.8,1.8,0,0,1,30.4.6,1.6,1.6,0,0,1,32.1.1a1.6,1.6,0,0,1,1.2,1.4c0,.5,0,1,0,1.4s0,.3,0,.4h3.5A4.2,4.2,0,0,1,40,7.7c0,2.8,0,5.6,0,8.4q0,9.7,0,19.4a4.4,4.4,0,0,1-.7,2.6A4.2,4.2,0,0,1,35.6,40H4.5a4.4,4.4,0,0,1-2.7-.8A4.1,4.1,0,0,1,0,35.8c0-2.5,0-5.1,0-7.6Q0,17.9,0,7.6A4.1,4.1,0,0,1,2.9,3.6l1.6-.2Zm30,10H3.3v.4q0,10.9,0,21.9c0,.8.3,1.1,1.1,1.1H35.6c.8,0,1.1-.3,1.1-1.1q0-10.9,0-21.8ZM3.4,10H36.7c0-.9,0-1.7,0-2.5a.8.8,0,0,0-.7-.8H33.4c-.3,1.1-.8,1.6-1.6,1.6l-1-.3A1.7,1.7,0,0,1,30,6.7H10c-.2,1.1-.8,1.6-1.7,1.6L7.4,8a1.6,1.6,0,0,1-.7-1.3H4.1a.7.7,0,0,0-.8.8C3.3,8.3,3.4,9.1,3.4,10Z"/><path class="cls-1" d="M21.7,18.3A1.7,1.7,0,1,1,20,16.7,1.7,1.7,0,0,1,21.7,18.3Z"/><path class="cls-1" d="M25,33.3a1.7,1.7,0,1,1,1.7-1.7A1.7,1.7,0,0,1,25,33.3Z"/><path class="cls-1" d="M16.7,25A1.7,1.7,0,1,1,15,23.3,1.7,1.7,0,0,1,16.7,25Z"/><path class="cls-1" d="M26.7,18.3A1.7,1.7,0,1,1,25,16.7,1.7,1.7,0,0,1,26.7,18.3Z"/><path class="cls-1" d="M16.7,18.3A1.7,1.7,0,1,1,15,16.7,1.7,1.7,0,0,1,16.7,18.3Z"/><path class="cls-1" d="M8.3,25A1.7,1.7,0,1,1,10,26.7,1.7,1.7,0,0,1,8.3,25Z"/><path class="cls-1" d="M21.7,25A1.7,1.7,0,1,1,20,23.3,1.7,1.7,0,0,1,21.7,25Z"/><path class="cls-1" d="M30,23.3A1.7,1.7,0,1,1,28.3,25,1.7,1.7,0,0,1,30,23.3Z"/><path class="cls-1" d="M31.7,18.3A1.7,1.7,0,1,1,30,16.7,1.7,1.7,0,0,1,31.7,18.3Z"/><path class="cls-1" d="M26.7,25A1.7,1.7,0,1,1,25,23.3,1.7,1.7,0,0,1,26.7,25Z"/><path class="cls-1" d="M8.3,31.6A1.7,1.7,0,1,1,10,33.3,1.7,1.7,0,0,1,8.3,31.6Z"/><path class="cls-1" d="M21.7,31.7A1.7,1.7,0,1,1,20,30,1.7,1.7,0,0,1,21.7,31.7Z"/><path class="cls-1" d="M16.7,31.7A1.7,1.7,0,1,1,15,30,1.7,1.7,0,0,1,16.7,31.7Z"/></g></g></g></svg>