<svg xmlns="http://www.w3.org/2000/svg" viewBox="0 0 40 43.7"><defs><style>.cls-1{fill:#fff;fill-rule:evenodd;}</style></defs><title>W_Clases</title><g id="Layer_2" data-name="Layer 2"><g id="Layer_1-2" data-name="Layer 1"><path class="cls-1" d="M9,41.5a1.3,1.3,0,0,0,1.8,1.8l7.2-7.2H14.5Z"/><path class="cls-1" d="M21.3,1.2a1.3,1.3,0,0,0-2.5,0V3.6h2.5Z"/><path class="cls-1" d="M18.7,42.5a1.3,1.3,0,0,0,2.5,0V36.1H18.7Z"/><path class="cls-1" d="M30.8,12.8l-7.9,7.9-5.1-5.1L7.4,26a1.3,1.3,0,0,0,1.8,1.8l8.6-8.6,5.1,5.1,9.7-9.7A1.3,1.3,0,0,0,30.8,12.8Z"/><path class="cls-1" d="M25.5,36.1H21.9l7.2,7.2A1.3,1.3,0,0,0,31,41.5Z"/><path class="cls-1" d="M39.6,4.8H.4a.4.4,0,0,0-.4.4V7.9c0,.4.4.4.7.4V31.6a3.3,3.3,0,0,0,.1.8A2.9,2.9,0,0,0,3.7,35H36.3a2.9,2.9,0,0,0,2.8-2.6,3.3,3.3,0,0,0,.1-.8V8.3c.3,0,.7,0,.7-.4V5.3A.4.4,0,0,0,39.6,4.8ZM35.4,30.7a.4.4,0,0,1-.4.4H5a.4.4,0,0,1-.4-.4V9.1A.4.4,0,0,1,5,8.6H35a.5.5,0,0,1,.4.4Z"/></g></g></svg>