<svg xmlns="http://www.w3.org/2000/svg" viewBox="0 0 50 50"><defs><style>.cls-1{fill:#fff;}</style></defs><title>W_CT_icon</title><g id="Layer_2" data-name="Layer 2"><g id="Layer_1-2" data-name="Layer 1"><path class="cls-1" d="M25,0A25,25,0,0,0,13.8,47.3,25.2,25.2,0,0,0,25,50,25,25,0,0,0,36.2,2.7,25.2,25.2,0,0,0,25,0ZM38.7,44.1A23.5,23.5,0,0,1,11.3,5.9,23.2,23.2,0,0,1,24.9,1.4,23.6,23.6,0,0,1,38.7,44.1Z"/><path class="cls-1" d="M33.8,28.8h.3l5,1.7a.9.9,0,0,1,.6.9v5.8a.9.9,0,0,1-.4.7l-5.9,4.2-.5.2h-.3l-5.3-1.7a.9.9,0,0,1-.7-.9l.2-5.7a.9.9,0,0,1,.4-.7l6.2-4.4.5-.2m0-.9h0a1.8,1.8,0,0,0-1.1.3l-6.2,4.4a1.8,1.8,0,0,0-.8,1.4l-.2,5.7a1.8,1.8,0,0,0,1.3,1.8l5.3,1.7h.5a1.8,1.8,0,0,0,1.1-.3l5.9-4.2a1.8,1.8,0,0,0,.8-1.4V31.5a1.8,1.8,0,0,0-1.2-1.8l-5-1.7Z"/><path class="cls-1" d="M37.7,13.7h.4l5.7,3.1a.9.9,0,0,1,.5.7l.8,5.6a.9.9,0,0,1-.5,1l-5.1,3.3h-.8L34.7,26a.9.9,0,0,1-.6-.6l-2.4-7.2a.9.9,0,0,1,.4-1.1l5.2-3.3h.5m0-.9h0a1.8,1.8,0,0,0-1,.3l-5.2,3.3a1.8,1.8,0,0,0-.7,2.1l2.4,7.2a1.8,1.8,0,0,0,1.1,1.1l4.2,1.5h.6l.9-.2h.1l5.1-3.3a1.8,1.8,0,0,0,.9-1.8l-.8-5.6a1.8,1.8,0,0,0-.9-1.3L38.6,13l-.9-.2Z"/><path class="cls-1" d="M18.9,14.7h.2l8.4,1.7a.9.9,0,0,1,.7.6l2.7,7.7a.9.9,0,0,1-.3,1.1L24.8,30l-.5.2-.6-.2-6.4-5a.9.9,0,0,1-.4-.9L18,15.5a.9.9,0,0,1,.9-.8m0-.9a1.8,1.8,0,0,0-1.8,1.6L16,24a1.8,1.8,0,0,0,.7,1.7l6.4,5a1.8,1.8,0,0,0,2.2,0l5.8-4.2a1.8,1.8,0,0,0,.7-2.1l-2.7-7.7a1.8,1.8,0,0,0-1.3-1.2l-8.4-1.7Z"/><path class="cls-1" d="M15.8,27.9l.6.2,6,4.6a.9.9,0,0,1,.4.7l-.3,7a.8.8,0,0,1-.3.7,23.5,23.5,0,0,1-4.3,1.1H16.4L11.6,40a.9.9,0,0,1-.5-.7L10,32.9a.9.9,0,0,1,.3-.9l4.8-3.8.6-.2m0-.9a1.8,1.8,0,0,0-1.1.4L9.8,31.3A1.8,1.8,0,0,0,9.2,33l1.1,6.4a1.8,1.8,0,0,0,1,1.3h0L16,43.1h0l.8.2h1A22,22,0,0,0,22.5,42a1.6,1.6,0,0,0,.8-1.5l.3-7h0a1.8,1.8,0,0,0-.7-1.4l-6-4.6a1.8,1.8,0,0,0-1.1-.4Z"/></g></g></svg>