<svg xmlns="http://www.w3.org/2000/svg" viewBox="0 0 40 40"><defs><style>.cls-1{fill:#fff;fill-rule:evenodd;}</style></defs><title>W_Graficas</title><g id="Layer_2" data-name="Layer 2"><g id="Layer_1-2" data-name="Layer 1"><path class="cls-1" d="M20,0A20,20,0,1,0,40,20,20,20,0,0,0,20,0Zm.4,20.6H36.1a.5.5,0,0,1,.1.4,16.1,16.1,0,0,1-4.7,10.4,16.2,16.2,0,0,1-22.1.7.5.5,0,0,1,0-.7L20.1,20.7ZM11.6,31.7,21,22.4H34.3a14.2,14.2,0,0,1-.9,3.2,14.4,14.4,0,0,1-21.8,6.2ZM18.9,3.8h.3a.5.5,0,0,1,.2.3V19.6a.5.5,0,0,1-.1.3L8.5,30.7H8.1l-.3-.2A16.2,16.2,0,0,1,18.9,3.8Zm3.7,15.6H21.1a.5.5,0,0,1-.5-.5V17.4l2,2Zm5.1,0H24.3l-3.7-3.7V12.3l7.1,7.1Zm5.1,0H29.4l-8.8-8.8V7.3L32.7,19.4ZM36,17.7q.1.6.1,1.2a.5.5,0,0,1-.1.3H34.4L20.6,5.6V4.3a.5.5,0,0,1,.1-.3h1.6L36,17.7ZM24.5,4.4l1.7.6A16.3,16.3,0,0,1,35,13.8a15.6,15.6,0,0,1,.6,1.7L24.5,4.4ZM20,2.6A17.4,17.4,0,1,1,2.6,20,17.4,17.4,0,0,1,20,2.6Z"/></g></g></svg>