<svg xmlns="http://www.w3.org/2000/svg" viewBox="0 0 48.7 40"><defs><style>.cls-1{fill:#fff;fill-rule:evenodd;}</style></defs><title>W_Habilidades</title><g id="Layer_2" data-name="Layer 2"><g id="Layer_1-2" data-name="Layer 1"><path class="cls-1" d="M37.6,9,39,6.7l.2-.2,6.6-3a.4.4,0,0,1,.6.7L44.3,7.4l4.1.7a.4.4,0,0,1,.1.8L41.7,12h-.3l-3-.5L29,15.9l.8,1.7a.4.4,0,0,1,0,.3l-.3.2L19.4,19.2a.4.4,0,0,1-.4-.8l7.4-6.8h.4l.3.2.7,1.6L37.6,9ZM18.7,10.2A8.4,8.4,0,1,0,27,20.3l-4.5.5a4.3,4.3,0,1,1-2.1-6.2l3.2-2.9a8.4,8.4,0,0,0-4.8-1.5Zm7.9,25.5a26.9,26.9,0,0,0,3.3,3.4c2.6,2.6,6.6-1.4,4-4l-2.6-2.6A18.8,18.8,0,0,0,37,14.4l-4.1,1.9a14.5,14.5,0,0,1,.2,2.5,14.3,14.3,0,1,1-2.8-8.5l4.1-1.9A18.7,18.7,0,0,0,22.1.3L18.7,0A18.7,18.7,0,0,0,6.2,32.6L3.6,35.2c-2.6,2.6,1.3,6.6,4,4a27.6,27.6,0,0,0,3.2-3.4,18.8,18.8,0,0,0,15.8,0Z"/></g></g></svg>