<svg xmlns="http://www.w3.org/2000/svg" viewBox="0 0 64 64"><defs><style>.cls-1{fill:#fff;}.cls-2{fill:none;stroke:#fff;stroke-linecap:round;stroke-miterlimit:10;stroke-width:4px;}</style></defs><title>W_MentorProfile</title><g id="Layer_2" data-name="Layer 2"><g id="Layer_1-2" data-name="Layer 1"><path class="cls-1" d="M51.6,45.9a7.2,7.2,0,0,0-3-2.8A9.9,9.9,0,0,0,44.2,42a6.6,6.6,0,0,1-3.9-1.2,3.8,3.8,0,0,1-1-1.1,2.5,2.5,0,0,1-.3-.9,9.7,9.7,0,0,0,1.9-1.4,9.4,9.4,0,0,0,3-6.3h0l.7-12v-.5A8.6,8.6,0,0,0,36,9.9H28.9a8.6,8.6,0,0,0-8.6,8.6h0v.5l.7,12a9.4,9.4,0,0,0,3,6.3,9.7,9.7,0,0,0,2,1.4,2.4,2.4,0,0,1-.3.9,4.4,4.4,0,0,1-1.9,1.6,7.6,7.6,0,0,1-3.3.7,9.8,9.8,0,0,0-5.9,1.8,7.3,7.3,0,0,0-2,2.2,5.7,5.7,0,0,0-.8,2.8v5.2h3V48.8a2.7,2.7,0,0,1,.4-1.3,4.7,4.7,0,0,1,2-1.7,7.3,7.3,0,0,1,3.3-.7,10.1,10.1,0,0,0,5.8-1.7,6.9,6.9,0,0,0,1.9-2,5.6,5.6,0,0,0,.6-1.4h7.4a5.7,5.7,0,0,0,.6,1.4,7.3,7.3,0,0,0,3.1,2.8,10,10,0,0,0,4.5,1,6.6,6.6,0,0,1,3.9,1.2,3.4,3.4,0,0,1,1,1.1,2.3,2.3,0,0,1,.2,1.2v5h3v-5A5.3,5.3,0,0,0,51.6,45.9ZM30.4,37A6.5,6.5,0,0,1,24,31l-.6-11.1c1.9-.4,5.7-1.4,7.6-2.9a19.1,19.1,0,0,0,3.5-3.5s3.5,5,6.5,6h.5L40.9,31h0A6.5,6.5,0,0,1,34.4,37h-4Z"/><path class="cls-1" d="M28.4,30.8a4.7,4.7,0,0,0,8,0A11.3,11.3,0,0,1,28.4,30.8Z"/><rect class="cls-1" x="27.7" y="22" width="2.5" height="3.01"/><rect class="cls-1" x="34.7" y="22" width="2.5" height="3.01"/><circle class="cls-2" cx="32" cy="32" r="30"/></g></g></svg>