<svg xmlns="http://www.w3.org/2000/svg" viewBox="0 0 37.1 45.7"><defs><style>.cls-1{fill:#fff;}</style></defs><title>W_Mentor</title><g id="Layer_2" data-name="Layer 2"><g id="Layer_1-2" data-name="Layer 1"><g id="zQgHRe.tif"><path class="cls-1" d="M31,10.3V11c0,3.1,0,6.2,0,9.3a12.6,12.6,0,0,1-6.7,11.4c-.3.1-.4.3-.3.6s0,.8.6.8h4a9,9,0,0,1,8.4,8.4c0,.9,0,1.9,0,2.8s-.5,1.5-1.5,1.5H1.4c-1,0-1.4-.4-1.4-1.4a18.4,18.4,0,0,1,.3-4.7A8.9,8.9,0,0,1,8.4,33h3.9c.5,0,.5-.4.6-.7s-.1-.4-.3-.5a12.5,12.5,0,0,1-7-11.5q-.1-5.7,0-11.3A7.3,7.3,0,0,1,7.9,4.2a6.6,6.6,0,0,1,4.1-2,1.3,1.3,0,0,0,.7-.4A5.2,5.2,0,0,1,16.8,0h7.8a9,9,0,0,1,8.9,7.2A10.2,10.2,0,0,1,33.7,9a1.2,1.2,0,0,1-1.2,1.3ZM8.1,15c0,1.9,0,3.7,0,5.6a9.9,9.9,0,0,0,.9,4,10.1,10.1,0,0,0,19.3-3.5c.1-3.5,0-7,.1-10.5a2.6,2.6,0,0,0-.1-.4H17.6a1,1,0,0,0-.9.4,11.6,11.6,0,0,1-5.5,3.7ZM19.8,43.2H34.6c0-.6,0-1.2,0-1.7a6.5,6.5,0,0,0-6-6H24l-.5.2-3.4,2.8a.6.6,0,0,0-.2.4C19.8,40.3,19.8,41.7,19.8,43.2Zm-17.3,0H17.3c0-1.5,0-2.9,0-4.3a.8.8,0,0,0-.3-.5l-3.4-2.7-.7-.3H9.3a6.6,6.6,0,0,0-3.5.9A6.7,6.7,0,0,0,2.5,43.2ZM31,7.8a6.4,6.4,0,0,0-6-5.3H16.7a2.6,2.6,0,0,0-2.5,3.4,2.6,2.6,0,0,0,2.7,1.8H31ZM11.5,4.9a4.6,4.6,0,0,0-2.6,2c-1.1,1.7-.7,3.6-.8,5.5a9.7,9.7,0,0,0,6.1-2.8A5.4,5.4,0,0,1,11.5,4.9Zm7,31.5,3.1-2.5a.6.6,0,0,0,.1-.4,5.3,5.3,0,0,0-.3-.8,13.5,13.5,0,0,1-6,.1c-.4.9-.4.9-.1,1.1Z"/><path class="cls-1" d="M16.5,16.8a3.2,3.2,0,0,1-2.8,3.3,3.1,3.1,0,0,1-3.4-2.3,4.9,4.9,0,0,1-.1-1.5,1.2,1.2,0,0,1,1.2-1.1,1.2,1.2,0,0,1,1.3,1,6.4,6.4,0,0,1,.1.8.6.6,0,0,0,.6.6A.6.6,0,0,0,14,17a4.9,4.9,0,0,0,0-.5,1.2,1.2,0,1,1,2.5,0C16.5,16.6,16.5,16.7,16.5,16.8Z"/><path class="cls-1" d="M19.9,16.8c0-.2,0-.4,0-.5a1.2,1.2,0,0,1,1.2-1.1,1.3,1.3,0,0,1,1.3,1.1c0,.2,0,.4,0,.6a.6.6,0,0,0,.6.7.6.6,0,0,0,.7-.6,5.1,5.1,0,0,0,0-.6,1.2,1.2,0,0,1,2.5-.2,3.3,3.3,0,0,1-1.7,3.6,3.2,3.2,0,0,1-3.8-.7A3.2,3.2,0,0,1,19.9,16.8Z"/></g></g></g></svg>