<svg xmlns="http://www.w3.org/2000/svg" viewBox="0 0 36 40"><defs><style>.cls-1{fill:#fff;}</style></defs><title>W_Proyectos</title><g id="Layer_2" data-name="Layer 2"><g id="Layer_1-2" data-name="Layer 1"><path class="cls-1" d="M35.5,12.9H28.1c-1.1,0-1.6-.5-1.6-1.8q0-4.7,0-9.3V0H10C9,0,8.7.3,8.7,1.4q0,18.6,0,37.2C8.7,39.7,9,40,10,40H34.8c1,0,1.2-.3,1.2-1.4q0-12.6,0-25.2v-.6Z"/><path class="cls-1" d="M0,13.8q0,9.8,0,19.7a1.3,1.3,0,0,0,.1.6l1.5,2.7a1,1,0,0,0,.9.6,1,1,0,0,0,.9-.6l1.4-2.6a2,2,0,0,0,.2-.9Q5,23.7,5,14v-.6H0C0,13.6,0,13.7,0,13.8Z"/><path class="cls-1" d="M29.3,2.6V10h6.1Z"/><path class="cls-1" d="M5,10.6C5,9.8,5,9,5,8.3a.8.8,0,0,0-.8-.8H.7a.7.7,0,0,0-.7.7c0,.8,0,1.6,0,2.4Z"/></g></g></svg>